<svg xmlns="http://www.w3.org/2000/svg" xmlns:xlink="http://www.w3.org/1999/xlink" width="500" zoomAndPan="magnify" viewBox="0 0 375 374.999991" height="500" preserveAspectRatio="xMidYMid meet" version="1.2"><defs><filter x="0%" y="0%" width="100%" filterUnits="objectBoundingBox" id="56fcf06a5a" height="100%"><feColorMatrix values="0 0 0 0 1 0 0 0 0 1 0 0 0 0 1 0 0 0 1 0" type="matrix" in="SourceGraphic"/></filter><clipPath id="7c43e2c55d"><rect x="0" width="330" y="0" height="77"/></clipPath><clipPath id="1b6ef6f6fd"><path d="M 86.445312 153.960938 L 101.78125 153.960938 L 101.78125 169.296875 L 86.445312 169.296875 Z M 86.445312 153.960938 "/></clipPath><clipPath id="f26c56f78e"><path d="M 94.113281 153.960938 C 89.878906 153.960938 86.445312 157.394531 86.445312 161.628906 C 86.445312 165.863281 89.878906 169.296875 94.113281 169.296875 C 98.347656 169.296875 101.78125 165.863281 101.78125 161.628906 C 101.78125 157.394531 98.347656 153.960938 94.113281 153.960938 Z M 94.113281 153.960938 "/></clipPath><clipPath id="a0823de785"><path d="M 292.136719 153.960938 L 307.472656 153.960938 L 307.472656 169.296875 L 292.136719 169.296875 Z M 292.136719 153.960938 "/></clipPath><clipPath id="c4dd27623f"><path d="M 299.804688 153.960938 C 295.570312 153.960938 292.136719 157.394531 292.136719 161.628906 C 292.136719 165.863281 295.570312 169.296875 299.804688 169.296875 C 304.039062 169.296875 307.472656 165.863281 307.472656 161.628906 C 307.472656 157.394531 304.039062 153.960938 299.804688 153.960938 Z M 299.804688 153.960938 "/></clipPath></defs><g id="51e63d2af2"><g style="fill:#ffffff;fill-opacity:1;"><g transform="translate(122.125104, 229.146988)"><path style="stroke:none" d="M 4.09375 -10.75 L 0.34375 -10.75 L 0.34375 -11.9375 L 9.125 -11.9375 L 9.125 -10.75 L 5.375 -10.75 L 5.375 0 L 4.09375 0 Z M 4.09375 -10.75 "/></g></g><g style="fill:#ffffff;fill-opacity:1;"><g transform="translate(130.957434, 229.146988)"><path style="stroke:none" d="M 1.359375 -8.1875 L 2.5625 -8.1875 L 2.5625 0 L 1.359375 0 Z M 1.96875 -10.15625 C 1.75 -10.15625 1.5625 -10.226562 1.40625 -10.375 C 1.257812 -10.519531 1.1875 -10.703125 1.1875 -10.921875 C 1.1875 -11.140625 1.257812 -11.320312 1.40625 -11.46875 C 1.5625 -11.613281 1.75 -11.6875 1.96875 -11.6875 C 2.175781 -11.6875 2.351562 -11.613281 2.5 -11.46875 C 2.65625 -11.320312 2.734375 -11.140625 2.734375 -10.921875 C 2.734375 -10.703125 2.65625 -10.519531 2.5 -10.375 C 2.351562 -10.226562 2.175781 -10.15625 1.96875 -10.15625 Z M 1.96875 -10.15625 "/></g></g><g style="fill:#ffffff;fill-opacity:1;"><g transform="translate(134.589217, 229.146988)"><path style="stroke:none" d="M 1.453125 -11.9375 L 2.640625 -11.9375 L 2.640625 -3.84375 L 6.734375 -8.1875 L 8.1875 -8.1875 L 5.03125 -4.859375 L 8.53125 0 L 7.171875 0 L 4.265625 -4.015625 L 2.640625 -2.296875 L 2.640625 0 L 1.453125 0 Z M 1.453125 -11.9375 "/></g></g><g style="fill:#ffffff;fill-opacity:1;"><g transform="translate(142.99548, 229.146988)"><path style="stroke:none" d="M 4.09375 -10.75 L 0.34375 -10.75 L 0.34375 -11.9375 L 9.125 -11.9375 L 9.125 -10.75 L 5.375 -10.75 L 5.375 0 L 4.09375 0 Z M 4.09375 -10.75 "/></g></g><g style="fill:#ffffff;fill-opacity:1;"><g transform="translate(151.145286, 229.146988)"><path style="stroke:none" d="M 4.953125 0.171875 C 4.367188 0.171875 3.820312 0.0625 3.3125 -0.15625 C 2.8125 -0.382812 2.375 -0.6875 2 -1.0625 C 1.625 -1.445312 1.320312 -1.894531 1.09375 -2.40625 C 0.875 -2.925781 0.765625 -3.488281 0.765625 -4.09375 C 0.765625 -4.6875 0.875 -5.242188 1.09375 -5.765625 C 1.320312 -6.285156 1.625 -6.734375 2 -7.109375 C 2.375 -7.492188 2.8125 -7.796875 3.3125 -8.015625 C 3.820312 -8.242188 4.367188 -8.359375 4.953125 -8.359375 C 5.523438 -8.359375 6.066406 -8.242188 6.578125 -8.015625 C 7.085938 -7.796875 7.53125 -7.492188 7.90625 -7.109375 C 8.28125 -6.734375 8.578125 -6.285156 8.796875 -5.765625 C 9.015625 -5.242188 9.125 -4.6875 9.125 -4.09375 C 9.125 -3.488281 9.015625 -2.925781 8.796875 -2.40625 C 8.578125 -1.894531 8.28125 -1.445312 7.90625 -1.0625 C 7.53125 -0.6875 7.085938 -0.382812 6.578125 -0.15625 C 6.066406 0.0625 5.523438 0.171875 4.953125 0.171875 Z M 4.953125 -0.9375 C 5.359375 -0.9375 5.738281 -1.015625 6.09375 -1.171875 C 6.457031 -1.335938 6.773438 -1.5625 7.046875 -1.84375 C 7.316406 -2.125 7.53125 -2.457031 7.6875 -2.84375 C 7.851562 -3.226562 7.9375 -3.644531 7.9375 -4.09375 C 7.9375 -4.539062 7.851562 -4.957031 7.6875 -5.34375 C 7.53125 -5.726562 7.316406 -6.0625 7.046875 -6.34375 C 6.773438 -6.632812 6.457031 -6.859375 6.09375 -7.015625 C 5.738281 -7.171875 5.359375 -7.25 4.953125 -7.25 C 4.535156 -7.25 4.148438 -7.171875 3.796875 -7.015625 C 3.441406 -6.859375 3.125 -6.632812 2.84375 -6.34375 C 2.570312 -6.0625 2.359375 -5.726562 2.203125 -5.34375 C 2.046875 -4.957031 1.96875 -4.539062 1.96875 -4.09375 C 1.96875 -3.644531 2.046875 -3.226562 2.203125 -2.84375 C 2.359375 -2.457031 2.570312 -2.125 2.84375 -1.84375 C 3.125 -1.570312 3.441406 -1.351562 3.796875 -1.1875 C 4.148438 -1.019531 4.535156 -0.9375 4.953125 -0.9375 Z M 4.953125 -0.9375 "/></g></g><g style="fill:#ffffff;fill-opacity:1;"><g transform="translate(160.745176, 229.146988)"><path style="stroke:none" d="M 1.453125 -11.9375 L 2.640625 -11.9375 L 2.640625 -3.84375 L 6.734375 -8.1875 L 8.1875 -8.1875 L 5.03125 -4.859375 L 8.53125 0 L 7.171875 0 L 4.265625 -4.015625 L 2.640625 -2.296875 L 2.640625 0 L 1.453125 0 Z M 1.453125 -11.9375 "/></g></g><g style="fill:#ffffff;fill-opacity:1;"><g transform="translate(169.151439, 229.146988)"><path style="stroke:none" d="M 11.125 -5.1875 C 11.925781 -4.113281 12.761719 -2.847656 13.445312 -1.636719 L 6.089844 -0.9375 C 7.59375 -3.34375 9.078125 -6.5 10.238281 -9.640625 L 8.855469 -9.980469 C 7.832031 -6.738281 6.058594 -3.226562 5.511719 -2.320312 C 4.949219 -1.363281 4.574219 -0.734375 4.179688 -0.632812 C 4.351562 -0.289062 4.574219 0.339844 4.640625 0.597656 C 5.203125 0.359375 6.058594 0.273438 14.058594 -0.5625 C 14.367188 0.0664062 14.621094 0.632812 14.8125 1.144531 L 16.074219 0.546875 C 15.425781 -1.175781 13.785156 -3.738281 12.269531 -5.683594 Z M 10.527344 -11.996094 C 10.273438 -12.660156 9.8125 -13.597656 9.332031 -14.316406 L 8.121094 -13.976562 C 8.480469 -13.359375 8.839844 -12.609375 9.078125 -11.996094 L 2.390625 -11.996094 L 2.390625 -7.492188 C 2.390625 -5.117188 2.253906 -1.792969 0.800781 0.546875 C 1.109375 0.664062 1.65625 1.058594 1.875 1.261719 C 3.394531 -1.210938 3.632812 -4.929688 3.632812 -7.492188 L 3.632812 -10.785156 L 16.109375 -10.785156 L 16.109375 -11.996094 Z M 10.527344 -11.996094 "/></g></g><g style="fill:#ffffff;fill-opacity:1;"><g transform="translate(185.913036, 229.146988)"><path style="stroke:none" d="M 12.746094 -3.941406 L 12.746094 -0.683594 L 4.46875 -0.683594 L 4.46875 -3.941406 Z M 3.207031 1.46875 L 4.46875 1.46875 L 4.46875 0.511719 L 12.746094 0.511719 L 12.746094 1.433594 L 14.027344 1.433594 L 14.027344 -5.117188 L 3.207031 -5.117188 Z M 9.574219 -7.984375 L 9.574219 -10.664062 L 14.757812 -10.664062 L 14.757812 -11.824219 L 9.574219 -11.824219 L 9.574219 -14.28125 L 8.257812 -14.28125 L 8.257812 -11.824219 L 4.691406 -11.824219 C 5 -12.472656 5.289062 -13.136719 5.527344 -13.820312 L 4.265625 -14.109375 C 3.632812 -12.21875 2.558594 -10.273438 1.3125 -9.058594 C 1.636719 -8.890625 2.199219 -8.546875 2.457031 -8.378906 C 3.019531 -8.992188 3.566406 -9.792969 4.078125 -10.664062 L 8.257812 -10.664062 L 8.257812 -7.984375 L 1.109375 -7.984375 L 1.109375 -6.792969 L 16.023438 -6.792969 L 16.023438 -7.984375 Z M 9.574219 -7.984375 "/></g></g><g style="fill:#ffffff;fill-opacity:1;"><g transform="translate(202.674634, 229.146988)"><path style="stroke:none" d="M 3.292969 -7.867188 C 4.726562 -9.402344 6.023438 -11.398438 6.894531 -13.566406 L 5.546875 -13.941406 C 4.554688 -11.347656 2.832031 -8.992188 0.800781 -7.523438 C 1.125 -7.285156 1.65625 -6.808594 1.894531 -6.550781 C 2.335938 -6.925781 2.796875 -7.335938 3.226562 -7.796875 L 3.226562 -6.621094 L 6.5 -6.621094 C 6.109375 -3.753906 5.171875 -1.058594 1.160156 0.289062 C 1.433594 0.527344 1.792969 1.039062 1.960938 1.363281 C 6.246094 -0.203125 7.371094 -3.257812 7.832031 -6.621094 L 12.457031 -6.621094 C 12.25 -2.390625 12.011719 -0.714844 11.585938 -0.289062 C 11.398438 -0.121094 11.210938 -0.0664062 10.851562 -0.0664062 C 10.441406 -0.0664062 9.417969 -0.0859375 8.308594 -0.1875 C 8.546875 0.171875 8.703125 0.699219 8.71875 1.074219 C 9.777344 1.144531 10.835938 1.160156 11.398438 1.109375 C 11.996094 1.074219 12.355469 0.9375 12.730469 0.511719 C 13.308594 -0.136719 13.53125 -2.082031 13.769531 -7.25 C 13.785156 -7.421875 13.804688 -7.867188 13.804688 -7.867188 Z M 10.304688 -13.496094 C 11.5 -10.988281 13.53125 -8.257812 15.304688 -6.707031 C 15.542969 -7.046875 15.988281 -7.523438 16.328125 -7.78125 C 14.554688 -9.113281 12.507812 -11.671875 11.449219 -13.976562 Z M 10.304688 -13.496094 "/></g></g><g style="fill:#ffffff;fill-opacity:1;"><g transform="translate(219.436231, 229.146988)"><path style="stroke:none" d="M 7.199219 -5.410156 C 6.859375 -5.921875 5.441406 -7.832031 4.847656 -8.546875 L 4.847656 -9.417969 L 7.335938 -9.417969 L 7.335938 -10.628906 L 4.847656 -10.628906 L 4.847656 -14.28125 L 3.617188 -14.28125 L 3.617188 -10.628906 L 1.074219 -10.628906 L 1.074219 -9.417969 L 3.480469 -9.417969 C 2.917969 -7.082031 1.742188 -4.417969 0.613281 -3.003906 C 0.820312 -2.695312 1.144531 -2.199219 1.28125 -1.859375 C 2.148438 -3.003906 2.984375 -4.847656 3.617188 -6.757812 L 3.617188 1.296875 L 4.847656 1.296875 L 4.847656 -6.980469 C 5.425781 -6.074219 6.089844 -5 6.382812 -4.402344 Z M 16.242188 -8.480469 L 9.417969 -8.480469 L 9.417969 -11.515625 C 11.464844 -11.894531 13.683594 -12.4375 15.269531 -13.085938 L 14.195312 -14.078125 C 12.8125 -13.445312 10.375 -12.796875 8.222656 -12.40625 L 8.222656 -7.183594 C 8.222656 -4.8125 8.070312 -1.636719 6.535156 0.632812 C 6.824219 0.734375 7.355469 1.074219 7.574219 1.28125 C 9.179688 -1.074219 9.417969 -4.640625 9.417969 -7.183594 L 9.417969 -7.269531 L 12.523438 -7.269531 L 12.523438 1.3125 L 13.769531 1.3125 L 13.769531 -7.269531 L 16.242188 -7.269531 Z M 16.242188 -8.480469 "/></g></g><g style="fill:#ffffff;fill-opacity:1;"><g transform="translate(236.19783, 229.146988)"><path style="stroke:none" d="M 5.125 -12.109375 L 6.234375 -12.109375 L 1.109375 3.578125 L 0 3.578125 Z M 5.125 -12.109375 "/></g></g><g style="fill:#ffffff;fill-opacity:1;"><g transform="translate(242.131595, 229.146988)"><path style="stroke:none" d="M 9.332031 -4.589844 L 14.265625 -4.589844 L 14.265625 -5.734375 L 9.332031 -5.734375 L 9.332031 -9.640625 L 8.019531 -9.640625 L 8.019531 -0.359375 L 4.8125 -0.359375 L 4.8125 -6.65625 L 3.566406 -6.65625 L 3.566406 -0.359375 L 1.417969 -0.359375 L 1.417969 0.800781 L 15.851562 0.800781 L 15.851562 -0.359375 L 9.332031 -0.359375 Z M 8.496094 -14.433594 C 6.84375 -11.839844 3.769531 -9.503906 0.632812 -8.242188 C 0.957031 -7.933594 1.3125 -7.507812 1.5 -7.183594 C 4.179688 -8.378906 6.722656 -10.253906 8.566406 -12.457031 C 10.75 -9.898438 13.105469 -8.429688 15.699219 -7.167969 C 15.867188 -7.542969 16.226562 -7.96875 16.515625 -8.242188 C 13.871094 -9.402344 11.382812 -10.851562 9.25 -13.34375 C 9.382812 -13.53125 9.519531 -13.703125 9.640625 -13.890625 Z M 8.496094 -14.433594 "/></g></g><g style="fill:#ffffff;fill-opacity:1;"><g transform="translate(258.893192, 229.146988)"><path style="stroke:none" d="M 15.460938 -13.15625 L 1.636719 -13.15625 L 1.636719 -11.976562 L 15.460938 -11.976562 Z M 5.496094 -5.765625 L 7.917969 -5.765625 L 7.917969 -3.53125 L 5.496094 -3.53125 Z M 5.496094 -9.007812 L 7.917969 -9.007812 L 7.917969 -6.792969 L 5.496094 -6.792969 Z M 11.464844 -6.792969 L 9.042969 -6.792969 L 9.042969 -9.007812 L 11.464844 -9.007812 Z M 11.464844 -3.53125 L 9.042969 -3.53125 L 9.042969 -5.765625 L 11.464844 -5.765625 Z M 12.574219 -2.457031 L 12.574219 -10.085938 L 4.417969 -10.085938 L 4.417969 -2.457031 Z M 14.214844 -9.078125 L 14.214844 -0.734375 L 2.882812 -0.734375 L 2.882812 -8.957031 L 1.605469 -8.957031 L 1.605469 0.460938 L 14.214844 0.460938 L 14.214844 1.246094 L 15.476562 1.246094 L 15.476562 -9.078125 Z M 14.214844 -9.078125 "/></g></g><g style="fill:#ffffff;fill-opacity:1;"><g transform="translate(275.65479, 229.146988)"><path style="stroke:none" d="M 7.78125 -12.832031 L 6.46875 -12.386719 C 6.894531 -11.5 7.867188 -8.855469 8.140625 -7.882812 L 9.46875 -8.34375 C 9.179688 -9.300781 8.15625 -12.011719 7.78125 -12.832031 Z M 13.785156 -12.183594 C 13.460938 -9.742188 12.457031 -6.945312 11.058594 -5.171875 C 9.332031 -2.984375 6.792969 -1.347656 4.351562 -0.632812 L 5.527344 0.5625 C 7.933594 -0.289062 10.460938 -2.046875 12.21875 -4.367188 C 13.617188 -6.210938 14.539062 -8.652344 15.050781 -10.765625 C 15.117188 -11.039062 15.238281 -11.449219 15.355469 -11.738281 Z M 3.019531 -11.808594 L 1.671875 -11.3125 C 2.082031 -10.578125 3.257812 -7.695312 3.582031 -6.636719 L 4.929688 -7.117188 C 4.539062 -8.242188 3.464844 -10.851562 3.019531 -11.808594 Z M 3.019531 -11.808594 "/></g></g><g style="fill:#ffffff;fill-opacity:1;"><g transform="translate(292.416387, 229.146988)"><path style="stroke:none" d="M 1.742188 -5.714844 C 2.269531 -5.765625 3.171875 -5.800781 4.113281 -5.800781 L 13.480469 -5.800781 C 14.246094 -5.800781 14.964844 -5.734375 15.304688 -5.714844 L 15.304688 -7.386719 C 14.929688 -7.355469 14.316406 -7.304688 13.460938 -7.304688 L 4.113281 -7.304688 C 3.15625 -7.304688 2.253906 -7.355469 1.742188 -7.386719 Z M 1.742188 -5.714844 "/></g></g><g style="fill:#ffffff;fill-opacity:1;"><g transform="translate(309.177985, 229.146988)"><path style="stroke:none" d="M 2.40625 0.410156 C 3.839844 -0.769531 4.929688 -2.441406 5.441406 -4.265625 C 5.902344 -5.972656 5.972656 -9.625 5.972656 -11.515625 C 5.972656 -12.03125 6.039062 -12.542969 6.058594 -12.746094 L 4.488281 -12.746094 C 4.554688 -12.386719 4.605469 -12.011719 4.605469 -11.5 C 4.605469 -9.605469 4.589844 -6.210938 4.09375 -4.640625 C 3.582031 -2.984375 2.558594 -1.46875 1.125 -0.445312 Z M 9.84375 0.390625 C 10.015625 0.257812 10.167969 0.136719 10.425781 0 C 12.40625 -0.988281 14.777344 -2.730469 16.242188 -4.726562 L 15.425781 -5.886719 C 14.128906 -3.957031 12.03125 -2.40625 10.460938 -1.6875 L 10.460938 -11.535156 C 10.460938 -12.183594 10.511719 -12.660156 10.527344 -12.796875 L 8.957031 -12.796875 C 8.976562 -12.660156 9.058594 -12.183594 9.058594 -11.535156 L 9.058594 -1.3125 C 9.058594 -0.972656 9.007812 -0.632812 8.941406 -0.359375 Z M 9.84375 0.390625 "/></g></g><g style="fill:#ffffff;fill-opacity:1;"><g transform="translate(325.951798, 229.146988)"><path style="stroke:none" d=""/></g></g><g mask="url(#a8fe8a9068)" transform="matrix(1,0,0,1,20,151)"><g clip-path="url(#7c43e2c55d)"><g style="fill:#ffffff;fill-opacity:1;"><g transform="translate(1.094772, 55.238217)"><path style="stroke:none" d="M 30.25 -10.3125 C 31.988281 -10.3125 33.675781 -10.570312 35.3125 -11.09375 C 36.945312 -11.613281 38.148438 -12.117188 38.921875 -12.609375 L 40.078125 -13.390625 L 44.921875 -3.703125 C 44.765625 -3.578125 44.539062 -3.410156 44.25 -3.203125 C 43.96875 -3.003906 43.3125 -2.628906 42.28125 -2.078125 C 41.25 -1.535156 40.144531 -1.0625 38.96875 -0.65625 C 37.800781 -0.257812 36.269531 0.0976562 34.375 0.421875 C 32.476562 0.742188 30.519531 0.90625 28.5 0.90625 C 23.84375 0.90625 19.429688 -0.234375 15.265625 -2.515625 C 11.109375 -4.796875 7.753906 -7.9375 5.203125 -11.9375 C 2.660156 -15.9375 1.390625 -20.265625 1.390625 -24.921875 C 1.390625 -28.429688 2.132812 -31.800781 3.625 -35.03125 C 5.125 -38.269531 7.117188 -41.039062 9.609375 -43.34375 C 12.097656 -45.644531 15 -47.484375 18.3125 -48.859375 C 21.625 -50.234375 25.019531 -50.921875 28.5 -50.921875 C 31.726562 -50.921875 34.707031 -50.535156 37.4375 -49.765625 C 40.164062 -49.003906 42.09375 -48.238281 43.21875 -47.46875 L 44.921875 -46.3125 L 40.078125 -36.625 C 39.796875 -36.863281 39.367188 -37.15625 38.796875 -37.5 C 38.234375 -37.84375 37.101562 -38.296875 35.40625 -38.859375 C 33.707031 -39.421875 31.988281 -39.703125 30.25 -39.703125 C 27.5 -39.703125 25.03125 -39.257812 22.84375 -38.375 C 20.664062 -37.488281 18.941406 -36.316406 17.671875 -34.859375 C 16.398438 -33.398438 15.429688 -31.832031 14.765625 -30.15625 C 14.097656 -28.476562 13.765625 -26.769531 13.765625 -25.03125 C 13.765625 -21.238281 15.1875 -17.835938 18.03125 -14.828125 C 20.882812 -11.816406 24.957031 -10.3125 30.25 -10.3125 Z M 30.25 -10.3125 "/></g></g><g style="fill:#ffffff;fill-opacity:1;"><g transform="translate(46.736064, 55.238217)"><path style="stroke:none" d="M 3.640625 0 L 3.640625 -52.140625 L 14.375 -52.140625 L 14.375 0 Z M 3.640625 0 "/></g></g><g style="fill:#ffffff;fill-opacity:1;"><g transform="translate(64.738006, 55.238217)"><path style="stroke:none" d="M 4.65625 -48.4375 C 5.914062 -49.6875 7.414062 -50.3125 9.15625 -50.3125 C 10.894531 -50.3125 12.390625 -49.6875 13.640625 -48.4375 C 14.890625 -47.1875 15.515625 -45.691406 15.515625 -43.953125 C 15.515625 -42.210938 14.890625 -40.71875 13.640625 -39.46875 C 12.390625 -38.21875 10.894531 -37.59375 9.15625 -37.59375 C 7.414062 -37.59375 5.914062 -38.21875 4.65625 -39.46875 C 3.40625 -40.71875 2.78125 -42.210938 2.78125 -43.953125 C 2.78125 -45.691406 3.40625 -47.1875 4.65625 -48.4375 Z M 3.640625 -31.09375 L 3.640625 0 L 14.375 0 L 14.375 -31.09375 Z M 3.640625 -31.09375 "/></g></g><g style="fill:#ffffff;fill-opacity:1;"><g transform="translate(83.043016, 55.238217)"><path style="stroke:none" d="M 35.640625 -27.25 C 38.554688 -24.070312 40.015625 -20.179688 40.015625 -15.578125 C 40.015625 -10.972656 38.554688 -7.070312 35.640625 -3.875 C 32.734375 -0.6875 29.035156 0.90625 24.546875 0.90625 C 20.429688 0.90625 17.039062 -0.382812 14.375 -2.96875 L 14.375 15.765625 L 3.640625 15.765625 L 3.640625 -31.09375 L 14.25 -31.09375 L 14.25 -27.578125 L 14.375 -27.578125 C 17.039062 -30.535156 20.429688 -32.015625 24.546875 -32.015625 C 29.035156 -32.015625 32.734375 -30.425781 35.640625 -27.25 Z M 26.515625 -10.3125 C 27.910156 -11.6875 28.609375 -13.441406 28.609375 -15.578125 C 28.609375 -17.722656 27.941406 -19.472656 26.609375 -20.828125 C 25.273438 -22.179688 23.519531 -22.859375 21.34375 -22.859375 C 19.238281 -22.859375 17.507812 -22.171875 16.15625 -20.796875 C 14.800781 -19.421875 14.125 -17.679688 14.125 -15.578125 C 14.125 -13.441406 14.820312 -11.6875 16.21875 -10.3125 C 17.613281 -8.9375 19.320312 -8.25 21.34375 -8.25 C 23.40625 -8.25 25.128906 -8.9375 26.515625 -10.3125 Z M 26.515625 -10.3125 "/></g></g><g style="fill:#ffffff;fill-opacity:1;"><g transform="translate(124.441431, 55.238217)"><path style="stroke:none" d="M 22.0625 -50.921875 C 24.769531 -50.921875 27.414062 -50.523438 30 -49.734375 C 32.59375 -48.953125 34.515625 -48.175781 35.765625 -47.40625 L 37.59375 -46.203125 L 32.984375 -37.109375 C 32.617188 -37.347656 32.113281 -37.660156 31.46875 -38.046875 C 30.820312 -38.429688 29.609375 -38.945312 27.828125 -39.59375 C 26.046875 -40.238281 24.390625 -40.5625 22.859375 -40.5625 C 20.953125 -40.5625 19.484375 -40.15625 18.453125 -39.34375 C 17.429688 -38.539062 16.921875 -37.453125 16.921875 -36.078125 C 16.921875 -35.390625 17.160156 -34.75 17.640625 -34.15625 C 18.128906 -33.570312 18.957031 -32.945312 20.125 -32.28125 C 21.300781 -31.613281 22.332031 -31.078125 23.21875 -30.671875 C 24.101562 -30.265625 25.476562 -29.660156 27.34375 -28.859375 C 30.570312 -27.484375 33.328125 -25.613281 35.609375 -23.25 C 37.898438 -20.882812 39.046875 -18.207031 39.046875 -15.21875 C 39.046875 -12.34375 38.53125 -9.832031 37.5 -7.6875 C 36.46875 -5.550781 35.050781 -3.875 33.25 -2.65625 C 31.457031 -1.445312 29.46875 -0.550781 27.28125 0.03125 C 25.09375 0.613281 22.726562 0.90625 20.1875 0.90625 C 18.007812 0.90625 15.867188 0.679688 13.765625 0.234375 C 11.660156 -0.203125 9.898438 -0.753906 8.484375 -1.421875 C 7.066406 -2.085938 5.789062 -2.742188 4.65625 -3.390625 C 3.53125 -4.035156 2.707031 -4.582031 2.1875 -5.03125 L 1.390625 -5.703125 L 7.09375 -15.28125 C 7.582031 -14.875 8.25 -14.359375 9.09375 -13.734375 C 9.9375 -13.109375 11.441406 -12.269531 13.609375 -11.21875 C 15.773438 -10.164062 17.6875 -9.640625 19.34375 -9.640625 C 24.144531 -9.640625 26.546875 -11.273438 26.546875 -14.546875 C 26.546875 -15.234375 26.375 -15.867188 26.03125 -16.453125 C 25.6875 -17.046875 25.082031 -17.632812 24.21875 -18.21875 C 23.351562 -18.800781 22.585938 -19.265625 21.921875 -19.609375 C 21.253906 -19.953125 20.160156 -20.476562 18.640625 -21.1875 C 17.128906 -21.894531 16.007812 -22.429688 15.28125 -22.796875 C 12.25 -24.285156 9.90625 -26.148438 8.25 -28.390625 C 6.59375 -30.640625 5.765625 -33.054688 5.765625 -35.640625 C 5.765625 -40.128906 7.421875 -43.796875 10.734375 -46.640625 C 14.046875 -49.492188 17.820312 -50.921875 22.0625 -50.921875 Z M 22.0625 -50.921875 "/></g></g><g style="fill:#ffffff;fill-opacity:1;"><g transform="translate(165.173108, 55.238217)"><path style="stroke:none" d="M 5.453125 -31.09375 L 5.453125 -42.6875 L 16.1875 -42.6875 L 16.1875 -31.09375 L 22.734375 -31.09375 L 22.734375 -22.921875 L 16.1875 -22.921875 L 16.1875 -13.03125 C 16.1875 -10.164062 16.992188 -8.734375 18.609375 -8.734375 C 19.015625 -8.734375 19.4375 -8.8125 19.875 -8.96875 C 20.320312 -9.132812 20.671875 -9.296875 20.921875 -9.453125 L 21.28125 -9.703125 L 23.953125 -1.03125 C 21.640625 0.257812 19.007812 0.90625 16.0625 0.90625 C 14.039062 0.90625 12.300781 0.550781 10.84375 -0.15625 C 9.394531 -0.863281 8.296875 -1.8125 7.546875 -3 C 6.796875 -4.195312 6.257812 -5.453125 5.9375 -6.765625 C 5.613281 -8.078125 5.453125 -9.476562 5.453125 -10.96875 L 5.453125 -22.921875 L 0.96875 -22.921875 L 0.96875 -31.09375 Z M 5.453125 -31.09375 "/></g></g><g style="fill:#ffffff;fill-opacity:1;"><g transform="translate(189.115086, 55.238217)"><path style="stroke:none" d="M 13.765625 -31.09375 L 13.765625 -16.3125 C 13.765625 -13.238281 14.226562 -11.054688 15.15625 -9.765625 C 16.082031 -8.472656 17.65625 -7.828125 19.875 -7.828125 C 22.101562 -7.828125 23.679688 -8.472656 24.609375 -9.765625 C 25.546875 -11.054688 26.015625 -13.238281 26.015625 -16.3125 L 26.015625 -31.09375 L 36.734375 -31.09375 L 36.734375 -13.703125 C 36.734375 -8.523438 35.390625 -4.796875 32.703125 -2.515625 C 30.015625 -0.234375 25.738281 0.90625 19.875 0.90625 C 14.019531 0.90625 9.75 -0.234375 7.0625 -2.515625 C 4.375 -4.796875 3.03125 -8.523438 3.03125 -13.703125 L 3.03125 -31.09375 Z M 13.765625 -31.09375 "/></g></g><g style="fill:#ffffff;fill-opacity:1;"><g transform="translate(228.876959, 55.238217)"><path style="stroke:none" d="M 5.75 -3.84375 C 2.84375 -7.019531 1.390625 -10.910156 1.390625 -15.515625 C 1.390625 -20.128906 2.84375 -24.03125 5.75 -27.21875 C 8.664062 -30.414062 12.367188 -32.015625 16.859375 -32.015625 C 20.972656 -32.015625 24.363281 -30.71875 27.03125 -28.125 L 27.03125 -52.140625 L 37.765625 -52.140625 L 37.765625 0 L 27.15625 0 L 27.15625 -3.515625 L 27.03125 -3.515625 C 24.363281 -0.566406 20.972656 0.90625 16.859375 0.90625 C 12.367188 0.90625 8.664062 -0.675781 5.75 -3.84375 Z M 14.875 -20.796875 C 13.488281 -19.421875 12.796875 -17.660156 12.796875 -15.515625 C 12.796875 -13.378906 13.460938 -11.632812 14.796875 -10.28125 C 16.128906 -8.925781 17.882812 -8.25 20.0625 -8.25 C 22.164062 -8.25 23.894531 -8.9375 25.25 -10.3125 C 26.601562 -11.6875 27.28125 -13.421875 27.28125 -15.515625 C 27.28125 -17.660156 26.582031 -19.421875 25.1875 -20.796875 C 23.789062 -22.171875 22.082031 -22.859375 20.0625 -22.859375 C 18 -22.859375 16.269531 -22.171875 14.875 -20.796875 Z M 14.875 -20.796875 "/></g></g><g style="fill:#ffffff;fill-opacity:1;"><g transform="translate(270.275374, 55.238217)"><path style="stroke:none" d="M 4.65625 -48.4375 C 5.914062 -49.6875 7.414062 -50.3125 9.15625 -50.3125 C 10.894531 -50.3125 12.390625 -49.6875 13.640625 -48.4375 C 14.890625 -47.1875 15.515625 -45.691406 15.515625 -43.953125 C 15.515625 -42.210938 14.890625 -40.71875 13.640625 -39.46875 C 12.390625 -38.21875 10.894531 -37.59375 9.15625 -37.59375 C 7.414062 -37.59375 5.914062 -38.21875 4.65625 -39.46875 C 3.40625 -40.71875 2.78125 -42.210938 2.78125 -43.953125 C 2.78125 -45.691406 3.40625 -47.1875 4.65625 -48.4375 Z M 3.640625 -31.09375 L 3.640625 0 L 14.375 0 L 14.375 -31.09375 Z M 3.640625 -31.09375 "/></g></g><g style="fill:#ffffff;fill-opacity:1;"><g transform="translate(288.580384, 55.238217)"><path style="stroke:none" d="M 6.578125 -3.703125 C 3.117188 -6.773438 1.390625 -10.710938 1.390625 -15.515625 C 1.390625 -20.328125 3.1875 -24.28125 6.78125 -27.375 C 10.382812 -30.46875 14.832031 -32.015625 20.125 -32.015625 C 25.34375 -32.015625 29.738281 -30.457031 33.3125 -27.34375 C 36.882812 -24.226562 38.671875 -20.285156 38.671875 -15.515625 C 38.671875 -10.742188 36.921875 -6.8125 33.421875 -3.71875 C 29.929688 -0.632812 25.5 0.90625 20.125 0.90625 C 14.550781 0.90625 10.035156 -0.628906 6.578125 -3.703125 Z M 14.875 -20.796875 C 13.488281 -19.421875 12.796875 -17.660156 12.796875 -15.515625 C 12.796875 -13.378906 13.460938 -11.632812 14.796875 -10.28125 C 16.128906 -8.925781 17.882812 -8.25 20.0625 -8.25 C 22.164062 -8.25 23.894531 -8.9375 25.25 -10.3125 C 26.601562 -11.6875 27.28125 -13.421875 27.28125 -15.515625 C 27.28125 -17.660156 26.582031 -19.421875 25.1875 -20.796875 C 23.789062 -22.171875 22.082031 -22.859375 20.0625 -22.859375 C 18 -22.859375 16.269531 -22.171875 14.875 -20.796875 Z M 14.875 -20.796875 "/></g></g><g style="fill:#ffffff;fill-opacity:1;"><g transform="translate(328.657612, 55.238217)"><path style="stroke:none" d=""/></g></g></g><mask id="a8fe8a9068"><g filter="url(#56fcf06a5a)"><rect x="0" width="375" y="0" height="374.999991" style="fill:#000000;fill-opacity:0.95;stroke:none;"/></g></mask></g><g clip-rule="nonzero" clip-path="url(#1b6ef6f6fd)"><g clip-rule="nonzero" clip-path="url(#f26c56f78e)"><path style=" stroke:none;fill-rule:nonzero;fill:#ff0048;fill-opacity:1;" d="M 86.445312 153.960938 L 101.78125 153.960938 L 101.78125 169.296875 L 86.445312 169.296875 Z M 86.445312 153.960938 "/></g></g><g clip-rule="nonzero" clip-path="url(#a0823de785)"><g clip-rule="nonzero" clip-path="url(#c4dd27623f)"><path style=" stroke:none;fill-rule:nonzero;fill:#1ff4ee;fill-opacity:1;" d="M 292.136719 153.960938 L 307.472656 153.960938 L 307.472656 169.296875 L 292.136719 169.296875 Z M 292.136719 153.960938 "/></g></g></g></svg>